<svg width="576" height="220" viewBox="0 0 576 220" fill="none" xmlns="http://www.w3.org/2000/svg">
<g clip-path="url(#clip0_117_292)">
<path d="M568.126 115.822L517.39 27.9491C507.293 10.461 489.191 0 468.997 0C448.825 0 430.768 10.4155 420.648 27.8582L315.629 209.744C314.401 211.859 314.401 214.451 315.629 216.566C316.857 218.681 319.108 219.977 321.542 219.977H349.491C351.924 219.977 354.175 218.681 355.403 216.566L364.455 200.875L367.229 196.44C367.229 196.44 367.32 196.303 367.343 196.235L401.227 137.54C401.364 137.312 401.5 137.062 401.591 136.789C401.91 136.062 402.228 135.379 402.615 134.743L453.351 46.87C456.603 41.2301 462.447 37.8416 468.974 37.8416C475.501 37.8416 481.345 41.2074 484.597 46.87L535.333 134.743C538.585 140.382 538.608 147.137 535.333 152.777C532.081 158.416 526.237 161.805 519.71 161.805H484.321C481.888 161.805 479.637 163.101 478.409 165.216L464.423 189.413C463.195 191.528 463.195 194.12 464.423 196.235C465.651 198.35 467.902 199.646 470.335 199.646H518.3C539.904 199.646 559.394 188.208 569.127 169.81C578.155 152.754 577.769 132.582 568.081 115.799L568.126 115.822Z" fill="black"/>
<path d="M392.529 161.804H493.501L492.091 199.646H378.543C376.11 199.646 373.859 198.349 372.63 196.234C371.402 194.119 371.402 191.527 372.63 189.412L386.616 165.215C387.844 163.1 390.096 161.804 392.529 161.804Z" fill="url(#paint0_linear_117_292)"/>
<path d="M207.084 119.165C207.084 117.982 206.766 116.822 206.152 115.799L155.848 29.1317C145.501 11.1888 126.625 0 106.636 0C105.976 0 105.317 0 104.634 0.0454827C85.3498 0.750465 68.0663 11.1888 58.3785 27.9491L7.66526 115.822C-6.25246 139.905 -0.862751 168.832 21.0599 187.775C29.9063 195.439 41.6181 199.646 54.0349 199.646H148.684C151.118 199.646 153.369 198.35 154.597 196.235L168.56 172.038C169.788 169.924 169.788 167.331 168.56 165.216C167.332 163.101 165.081 161.805 162.648 161.805H56.0589C49.5321 161.805 43.6876 158.439 40.4356 152.799C37.1608 147.159 37.1608 140.428 40.4356 134.765L91.1716 46.8927C94.4236 41.2528 100.268 37.8644 106.795 37.8644C113.322 37.8644 119.143 41.2301 122.418 46.8927L194.872 172.539C196.419 175.222 199.58 176.519 202.582 175.723C205.583 174.904 207.63 172.175 207.607 169.082L207.107 119.188L207.084 119.165Z" fill="url(#paint1_linear_117_292)"/>
<path d="M21.0597 187.775C-0.862996 168.831 -6.2527 139.904 7.66502 115.821L40.4353 134.765C37.1606 140.427 37.1606 147.159 40.4353 152.799C43.6873 158.439 49.5319 161.804 56.0587 161.804H162.647C165.081 161.804 167.332 163.101 168.56 165.216C169.788 167.331 169.788 169.923 168.56 172.038L154.597 196.235C153.369 198.35 151.118 199.646 148.684 199.646H54.0347C41.6179 199.646 29.9061 195.439 21.0597 187.775Z" fill="black"/>
<path d="M353.561 165.193C352.333 163.078 350.081 161.782 347.648 161.782H242.81C236.283 161.782 230.439 158.416 227.187 152.777C223.912 147.137 223.912 140.405 227.187 134.743L277.923 46.87C281.175 41.2301 287.019 37.8416 293.546 37.8416C300.073 37.8416 305.895 41.2074 309.169 46.87L312.194 52.1005C313.422 54.2154 315.674 55.5117 318.107 55.5117C320.54 55.5117 322.814 54.1927 324.02 52.0777L337.46 28.5177C338.87 26.0389 338.597 22.946 336.777 20.7629C325.771 7.57288 309.943 0 293.387 0C292.727 0 292.068 0 291.386 0.0454827C272.101 0.750465 254.818 11.1888 245.13 27.9491L194.394 115.822C180.476 139.905 185.866 168.832 207.788 187.775C216.635 195.439 228.347 199.646 240.763 199.646H333.639C336.073 199.646 338.324 198.35 339.552 196.235L353.538 172.038C354.766 169.924 354.766 167.331 353.538 165.216L353.561 165.193Z" fill="url(#paint2_linear_117_292)"/>
</g>
<defs>
<linearGradient id="paint0_linear_117_292" x1="469.563" y1="180.725" x2="391.711" y2="180.725" gradientUnits="userSpaceOnUse">
<stop/>
<stop offset="1" stop-opacity="0"/>
</linearGradient>
<linearGradient id="paint1_linear_117_292" x1="160.148" y1="80.1916" x2="183.417" y2="127.823" gradientUnits="userSpaceOnUse">
<stop/>
<stop offset="1" stop-opacity="0"/>
</linearGradient>
<linearGradient id="paint2_linear_117_292" x1="260.591" y1="143.59" x2="323.126" y2="192.882" gradientUnits="userSpaceOnUse">
<stop/>
<stop offset="1" stop-opacity="0"/>
</linearGradient>
<clipPath id="clip0_117_292">
<rect width="575.675" height="220" fill="white"/>
</clipPath>
</defs>
</svg>
