<svg xmlns="http://www.w3.org/2000/svg" viewBox="0 0 180 180" role="img" aria-labelledby="title desc">
  <title id="title">Calendar</title>
  <desc id="desc">Calendar icon on an orange badge.</desc>
  <rect width="180" height="180" rx="36" fill="#FF7742" />
  <g transform="translate(18 18) scale(0.3214)" fill="#ffffff">
    <path d="M120 0c13.3 0 24 10.7 24 24v40h160V24c0-13.3 10.7-24 24-24s24 10.7 24 24v40h32c35.3 0 64 28.7 64 64v288c0 35.3-28.7 64-64 64H64c-35.3 0-64-28.7-64-64V128c0-35.3 28.7-64 64-64h32V24c0-13.3 10.7-24 24-24m0 112H64c-8.8 0-16 7.2-16 16v48h352v-48c0-8.8-7.2-16-16-16zM48 224v192c0 8.8 7.2 16 16 16h320c8.8 0 16-7.2 16-16V224z"/>
  </g>
</svg>
