<svg xmlns="http://www.w3.org/2000/svg" viewBox="0 0 180 180" role="img" aria-labelledby="title desc">
  <title id="title">chess-board</title>
  <desc id="desc">Board-viewer logo based on a FEN-rendered starting chess position.</desc>
  <rect width="180" height="180" rx="36" fill="#f2d9b5" />
  <rect x="24" y="18" width="132" height="132" rx="20" fill="#f8e8ca" stroke="#dfc69b" stroke-width="2" />
  <g transform="translate(38 32)">
    <rect width="104" height="104" fill="#f0d9b5" stroke="#463627" stroke-width="2" />
    <g>
      <rect x="13" y="0" width="13" height="13" fill="#b58863" />
      <rect x="39" y="0" width="13" height="13" fill="#b58863" />
      <rect x="65" y="0" width="13" height="13" fill="#b58863" />
      <rect x="91" y="0" width="13" height="13" fill="#b58863" />
      <rect x="0" y="13" width="13" height="13" fill="#b58863" />
      <rect x="26" y="13" width="13" height="13" fill="#b58863" />
      <rect x="52" y="13" width="13" height="13" fill="#b58863" />
      <rect x="78" y="13" width="13" height="13" fill="#b58863" />
      <rect x="13" y="26" width="13" height="13" fill="#b58863" />
      <rect x="39" y="26" width="13" height="13" fill="#b58863" />
      <rect x="65" y="26" width="13" height="13" fill="#b58863" />
      <rect x="91" y="26" width="13" height="13" fill="#b58863" />
      <rect x="0" y="39" width="13" height="13" fill="#b58863" />
      <rect x="26" y="39" width="13" height="13" fill="#b58863" />
      <rect x="52" y="39" width="13" height="13" fill="#b58863" />
      <rect x="78" y="39" width="13" height="13" fill="#b58863" />
      <rect x="13" y="52" width="13" height="13" fill="#b58863" />
      <rect x="39" y="52" width="13" height="13" fill="#b58863" />
      <rect x="65" y="52" width="13" height="13" fill="#b58863" />
      <rect x="91" y="52" width="13" height="13" fill="#b58863" />
      <rect x="0" y="65" width="13" height="13" fill="#b58863" />
      <rect x="26" y="65" width="13" height="13" fill="#b58863" />
      <rect x="52" y="65" width="13" height="13" fill="#b58863" />
      <rect x="78" y="65" width="13" height="13" fill="#b58863" />
      <rect x="13" y="78" width="13" height="13" fill="#b58863" />
      <rect x="39" y="78" width="13" height="13" fill="#b58863" />
      <rect x="65" y="78" width="13" height="13" fill="#b58863" />
      <rect x="91" y="78" width="13" height="13" fill="#b58863" />
      <rect x="0" y="91" width="13" height="13" fill="#b58863" />
      <rect x="26" y="91" width="13" height="13" fill="#b58863" />
      <rect x="52" y="91" width="13" height="13" fill="#b58863" />
      <rect x="78" y="91" width="13" height="13" fill="#b58863" />
    </g>
    <g font-family="DejaVu Sans, Noto Sans Symbols 2, serif" font-size="10" text-anchor="middle" dominant-baseline="central">
      <g fill="#f5f5f5" stroke="#202020" stroke-width="0.8">
        <circle cx="6.5" cy="97.5" r="5.1" />
        <circle cx="19.5" cy="97.5" r="5.1" />
        <circle cx="32.5" cy="97.5" r="5.1" />
        <circle cx="45.5" cy="97.5" r="5.1" />
        <circle cx="58.5" cy="97.5" r="5.1" />
        <circle cx="71.5" cy="97.5" r="5.1" />
        <circle cx="84.5" cy="97.5" r="5.1" />
        <circle cx="97.5" cy="97.5" r="5.1" />
        <circle cx="6.5" cy="84.5" r="5.1" />
        <circle cx="19.5" cy="84.5" r="5.1" />
        <circle cx="32.5" cy="84.5" r="5.1" />
        <circle cx="45.5" cy="84.5" r="5.1" />
        <circle cx="58.5" cy="84.5" r="5.1" />
        <circle cx="71.5" cy="84.5" r="5.1" />
        <circle cx="84.5" cy="84.5" r="5.1" />
        <circle cx="97.5" cy="84.5" r="5.1" />
      </g>
      <g fill="#202020">
        <text x="6.5" y="97.7">♖</text>
        <text x="19.5" y="97.7">♘</text>
        <text x="32.5" y="97.7">♗</text>
        <text x="45.5" y="97.7">♕</text>
        <text x="58.5" y="97.7">♔</text>
        <text x="71.5" y="97.7">♗</text>
        <text x="84.5" y="97.7">♘</text>
        <text x="97.5" y="97.7">♖</text>
        <text x="6.5" y="84.7">♙</text>
        <text x="19.5" y="84.7">♙</text>
        <text x="32.5" y="84.7">♙</text>
        <text x="45.5" y="84.7">♙</text>
        <text x="58.5" y="84.7">♙</text>
        <text x="71.5" y="84.7">♙</text>
        <text x="84.5" y="84.7">♙</text>
        <text x="97.5" y="84.7">♙</text>
      </g>
      <g fill="#202020" stroke="#f5f5f5" stroke-width="0.8">
        <circle cx="6.5" cy="6.5" r="5.1" />
        <circle cx="19.5" cy="6.5" r="5.1" />
        <circle cx="32.5" cy="6.5" r="5.1" />
        <circle cx="45.5" cy="6.5" r="5.1" />
        <circle cx="58.5" cy="6.5" r="5.1" />
        <circle cx="71.5" cy="6.5" r="5.1" />
        <circle cx="84.5" cy="6.5" r="5.1" />
        <circle cx="97.5" cy="6.5" r="5.1" />
        <circle cx="6.5" cy="19.5" r="5.1" />
        <circle cx="19.5" cy="19.5" r="5.1" />
        <circle cx="32.5" cy="19.5" r="5.1" />
        <circle cx="45.5" cy="19.5" r="5.1" />
        <circle cx="58.5" cy="19.5" r="5.1" />
        <circle cx="71.5" cy="19.5" r="5.1" />
        <circle cx="84.5" cy="19.5" r="5.1" />
        <circle cx="97.5" cy="19.5" r="5.1" />
      </g>
      <g fill="#f5f5f5">
        <text x="6.5" y="6.7">♜</text>
        <text x="19.5" y="6.7">♞</text>
        <text x="32.5" y="6.7">♝</text>
        <text x="45.5" y="6.7">♛</text>
        <text x="58.5" y="6.7">♚</text>
        <text x="71.5" y="6.7">♝</text>
        <text x="84.5" y="6.7">♞</text>
        <text x="97.5" y="6.7">♜</text>
        <text x="6.5" y="19.7">♟</text>
        <text x="19.5" y="19.7">♟</text>
        <text x="32.5" y="19.7">♟</text>
        <text x="45.5" y="19.7">♟</text>
        <text x="58.5" y="19.7">♟</text>
        <text x="71.5" y="19.7">♟</text>
        <text x="84.5" y="19.7">♟</text>
        <text x="97.5" y="19.7">♟</text>
      </g>
    </g>
  </g>
  <text x="26" y="163" font-family="IBM Plex Mono, SFMono-Regular, monospace" font-size="11" fill="#463627">chess-board</text>
</svg>
